<svg xmlns="http://www.w3.org/2000/svg" viewBox="0 0 256 256" role="img" aria-label="JoyCaption icon">
  <defs>
    <linearGradient id="bg" x1="36" y1="24" x2="220" y2="232" gradientUnits="userSpaceOnUse">
      <stop offset="0" stop-color="#1d5fce"/>
      <stop offset="0.56" stop-color="#2878e8"/>
      <stop offset="1" stop-color="#2f8b57"/>
    </linearGradient>
    <linearGradient id="photo" x1="62" y1="72" x2="182" y2="174" gradientUnits="userSpaceOnUse">
      <stop offset="0" stop-color="#e6f0ff"/>
      <stop offset="0.48" stop-color="#ffffff"/>
      <stop offset="1" stop-color="#d8efe1"/>
    </linearGradient>
    <filter id="shadow" x="-20%" y="-20%" width="140%" height="150%">
      <feDropShadow dx="0" dy="12" stdDeviation="10" flood-color="#0f172a" flood-opacity="0.24"/>
    </filter>
  </defs>
  <rect width="256" height="256" rx="56" fill="url(#bg)"/>
  <path d="M48 52C72 31 114 24 152 34c-39 5-76 27-102 63-13 18-22 38-27 58-4-40 4-78 25-103Z" fill="#ffffff" opacity="0.16"/>
  <g filter="url(#shadow)">
    <rect x="52" y="60" width="142" height="126" rx="24" fill="#ffffff" opacity="0.96"/>
    <rect x="68" y="76" width="110" height="82" rx="15" fill="url(#photo)"/>
    <circle cx="93" cy="101" r="13" fill="#f2b84b"/>
    <path d="M74 151l33-34 24 25 17-17 28 26v8H74z" fill="#2f8b57" opacity="0.9"/>
    <path d="M74 151l27-27 38 35H74z" fill="#1d5fce" opacity="0.86"/>
  </g>
  <g filter="url(#shadow)">
    <path d="M118 153h75l34 31-34 31h-75c-13 0-24-11-24-24v-14c0-13 11-24 24-24Z" fill="#ffffff"/>
    <circle cx="124" cy="184" r="8" fill="#1d5fce"/>
    <rect x="142" y="171" width="54" height="8" rx="4" fill="#1f2937" opacity="0.85"/>
    <rect x="142" y="189" width="39" height="8" rx="4" fill="#2f8b57" opacity="0.9"/>
  </g>
  <path d="M205 55l7 15 16 5-15 7-5 16-7-15-16-5 15-7z" fill="#ffffff" opacity="0.95"/>
</svg>
